<svg xmlns="http://www.w3.org/2000/svg" viewBox="0 0 24 24"><path d="M4.57 5.78h6.646a1.757 1.757 0 011.789 1.788v2.054a.75.75 0 01-1.5 0v-2.08a.256.256 0 00-.263-.263H4.53a.75.75 0 01-.093-.005.174.174 0 00-.194.194.75.75 0 01.006.093v2.061a.75.75 0 01-1.5 0V7.6a1.674 1.674 0 011.82-1.82zm8.903 5.151a2.175 2.175 0 012.28 2.127v5.498a.75.75 0 01-.75.75H.75a.75.75 0 01-.75-.75v-5.522a2.175 2.175 0 012.297-2.102 2.136 2.136 0 012.25 2.122v1.316h6.614v-1.308a2.12 2.12 0 012.312-2.13zm-.112 1.497a.62.62 0 00-.7.622v2.07a.75.75 0 01-.75.75H3.798a.75.75 0 01-.75-.75v-2.06a.637.637 0 00-.69-.629.748.748 0 01-.126 0 .674.674 0 00-.732.641v4.734h12.753v-4.734a.676.676 0 00-.732-.64.757.757 0 01-.16-.004zM0 20.618a.75.75 0 01.75-.75h2.749a.75.75 0 010 1.5H.75a.75.75 0 01-.75-.75zm11.505 0a.75.75 0 01.75-.75h2.748a.75.75 0 010 1.5h-2.748a.75.75 0 01-.75-.75zm5.497 0a.75.75 0 01.75-.75h4.124a.75.75 0 010 1.5h-4.124a.75.75 0 01-.75-.75zm-.335-17.98A.75.75 0 0117.41 2h4.81a.75.75 0 01.742.639l1.03 6.872a.75.75 0 01-.741.861h-6.872a.75.75 0 01-.742-.861l1.031-6.872zm1.388.862l-.806 5.372h5.13L21.573 3.5h-3.518z"/><path d="M19.814 10.934a.75.75 0 01.75.75v8.934a.75.75 0 01-1.5 0v-8.934a.75.75 0 01.75-.75z"/></svg>
